# xmcd
#
# Track frame offsets: 
#        150
#        12478
#        23660
#        33879
#        44840
#        55229
#        68912
#        83239
#        93329
#        104905
#        118988
#        129619
#        138883
#        150700
#        175198
#
# Disc length: 2367 seconds
#
# Revision: 0
# Processed by: cddbd v1.5.2PL0 Copyright (c) Steve Scherf et al.
# Submitted via: ExactAudioCopy v0.99pb5
#
DISCID=d1093d0f
DTITLE=Charley Pride - The Very Best Of Charley Pride
DYEAR=2008
DGENRE=Country
TTITLE0=The Snakes Crawl At Night
TTITLE1=Before I Met You
TTITLE2=Just Between You And Me
TTITLE3=I Know One
TTITLE4=Does My Ring Hurt Your Finger
TTITLE5=All I Have To Offer you (Is Me)
TTITLE6=(I'm So) Afraid Of Losing You Again
TTITLE7=Is Anybody Goin' To San Antone
TTITLE8=Wonder Could I Live There Anymore
TTITLE9=I Can't Believe That You've Stopped Loving Me
TTITLE10=I'm Just Me
TTITLE11=Kiss An angel Good Mornin'
TTITLE12=It's Gonna Take A Little Bit Longer
TTITLE13=I Ain't All Bad
TTITLE14=Data
EXTD=
EXTT0=
EXTT1=
EXTT2=
EXTT3=
EXTT4=
EXTT5=
EXTT6=
EXTT7=
EXTT8=
EXTT9=
EXTT10=
EXTT11=
EXTT12=
EXTT13=
EXTT14=
PLAYORDER=
